<svg id="圖層_1" data-name="圖層 1" xmlns="http://www.w3.org/2000/svg" viewBox="0 0 190.81 191.41"><defs><style>.cls-1{fill:#f60;}.cls-2{fill:none;stroke:#f60;stroke-linecap:round;stroke-miterlimit:10;stroke-width:10px;}</style></defs><path d="M183.79,118.49a28.24,28.24,0,0,1-27.23-27.24,1,1,0,0,1,.95-1H184.6l.17,27.26A1,1,0,0,1,183.79,118.49Z"/><path d="M95.57,158.85l43.91-95.92a2.3,2.3,0,0,0-2.78-3.15L95.57,72.7Z"/><path class="cls-1" d="M95.57,158.85,51.67,63a2.31,2.31,0,0,1,2.79-3.17L95.57,72.7Z"/><path class="cls-2" d="M184.33,95.24A89.27,89.27,0,1,1,95.07,6"/></svg>