<?xml version="1.0" encoding="UTF-8"?>
<svg width="584px" height="450px" viewBox="0 0 584 450" version="1.1" xmlns="http://www.w3.org/2000/svg" xmlns:xlink="http://www.w3.org/1999/xlink">
    <!-- Generator: Sketch 61.2 (89653) - https://sketch.com -->
    <title>scooter_problem3</title>
    <desc>Created with Sketch.</desc>
    <defs>
        <linearGradient x1="50%" y1="-52.6711032%" x2="50%" y2="100%" id="linearGradient-1">
            <stop stop-color="#FFCC33" offset="0%"></stop>
            <stop stop-color="#FF9D17" offset="100%"></stop>
        </linearGradient>
        <linearGradient x1="0%" y1="38.7737931%" x2="135.508123%" y2="38.7737931%" id="linearGradient-2">
            <stop stop-color="#293765" offset="0%"></stop>
            <stop stop-color="#1B2137" offset="100%"></stop>
        </linearGradient>
        <linearGradient x1="-9.55174221%" y1="100%" x2="71.6713063%" y2="100%" id="linearGradient-3">
            <stop stop-color="#FFDA52" offset="0%"></stop>
            <stop stop-color="#F7A71C" offset="100%"></stop>
        </linearGradient>
        <linearGradient x1="50%" y1="-11.4277787%" x2="50%" y2="100%" id="linearGradient-4">
            <stop stop-color="#0079FF" offset="0%"></stop>
            <stop stop-color="#0050FF" offset="100%"></stop>
        </linearGradient>
        <linearGradient x1="40.0527555%" y1="161.30461%" x2="74.9134948%" y2="-38.9461738%" id="linearGradient-5">
            <stop stop-color="#079BFB" offset="0%"></stop>
            <stop stop-color="#1466FA" offset="100%"></stop>
        </linearGradient>
        <linearGradient x1="46.5817436%" y1="161.30461%" x2="58.5612366%" y2="-38.9461738%" id="linearGradient-6">
            <stop stop-color="#079BFB" offset="0%"></stop>
            <stop stop-color="#1466FA" offset="100%"></stop>
        </linearGradient>
        <linearGradient x1="27.3869601%" y1="133.663112%" x2="46.3792721%" y2="50%" id="linearGradient-7">
            <stop stop-color="#293765" offset="0%"></stop>
            <stop stop-color="#1B2137" offset="100%"></stop>
        </linearGradient>
        <linearGradient x1="187.176928%" y1="50%" x2="45.1489784%" y2="40.5763943%" id="linearGradient-8">
            <stop stop-color="#293765" offset="0%"></stop>
            <stop stop-color="#1B2137" offset="100%"></stop>
        </linearGradient>
        <linearGradient x1="50%" y1="-483.616106%" x2="50%" y2="194.425885%" id="linearGradient-9">
            <stop stop-color="#2FEBAC" offset="0%"></stop>
            <stop stop-color="#04DED4" offset="100%"></stop>
        </linearGradient>
        <linearGradient x1="0%" y1="50%" x2="100%" y2="50%" id="linearGradient-10">
            <stop stop-color="#815AEE" offset="0%"></stop>
            <stop stop-color="#7047E6" offset="100%"></stop>
        </linearGradient>
        <linearGradient x1="0%" y1="38.7737931%" x2="135.508123%" y2="38.7737931%" id="linearGradient-11">
            <stop stop-color="#293765" offset="0%"></stop>
            <stop stop-color="#1B2137" offset="100%"></stop>
        </linearGradient>
        <linearGradient x1="0%" y1="50%" x2="100%" y2="50%" id="linearGradient-12">
            <stop stop-color="#FFC552" offset="0%"></stop>
            <stop stop-color="#FFCB00" offset="100%"></stop>
        </linearGradient>
        <linearGradient x1="0%" y1="38.7737931%" x2="135.508123%" y2="38.7737931%" id="linearGradient-13">
            <stop stop-color="#293765" offset="0%"></stop>
            <stop stop-color="#1B2137" offset="100%"></stop>
        </linearGradient>
        <linearGradient x1="50%" y1="-21.7189362%" x2="45.5960344%" y2="105.354616%" id="linearGradient-14">
            <stop stop-color="#293765" offset="0%"></stop>
            <stop stop-color="#1B2137" offset="100%"></stop>
        </linearGradient>
        <linearGradient x1="105.257589%" y1="62.3057013%" x2="30.9854958%" y2="40.0427783%" id="linearGradient-15">
            <stop stop-color="#56EBCD" offset="0%"></stop>
            <stop stop-color="#2EE6C1" offset="100%"></stop>
        </linearGradient>
    </defs>
    <g id="scooter_problem3" stroke="none" stroke-width="1" fill="none" fill-rule="evenodd">
        <g id="Group-2" transform="translate(53.000000, 20.000000)">
            <g id="資產-31-copy-2" transform="translate(392.000000, 286.000000) scale(-1, 1) translate(-392.000000, -286.000000) translate(315.000000, 205.000000)">
                <path d="M98.8580102,18 L94.1504151,18 C90.7536346,18 88,15.0898509 88,11.5 L88,11.5 C88,7.91014913 90.7536346,5 94.1504151,5 L98.8580102,5 C102.2515,5.00491284 105,7.91362352 105,11.5 L105,11.5 C105,15.0863765 102.2515,17.9950872 98.8580102,18 L98.8580102,18 Z" id="Path" fill="url(#linearGradient-1)"></path>
                <ellipse id="Oval" fill="#231F20" fill-rule="nonzero" transform="translate(122.853715, 135.136428) rotate(-24.980000) translate(-122.853715, -135.136428) " cx="122.853715" cy="135.136428" rx="19.6200779" ry="19.5814498"></ellipse>
                <path d="M109.206388,100.967876 C93.4312737,108.33316 86.6106124,127.078888 93.9522676,142.834028 C101.293923,158.589169 120.028947,165.395406 135.795758,158.030122 C151.56257,150.664838 158.391534,131.921188 151.047803,116.168126 C143.704072,100.415064 124.9732,93.6046699 109.206388,100.967876 Z" id="Path" fill="#131127"></path>
                <path d="M112.811969,108.263977 C100.819708,113.889542 95.653124,128.17104 101.26935,140.170144 C106.885576,152.169249 121.159923,157.346548 133.159542,151.736703 C145.159161,146.126857 150.344445,131.852142 144.743939,119.845689 C142.045433,114.073838 137.164919,109.610857 131.176323,107.438796 C125.187728,105.266735 118.581741,105.563567 112.811969,108.263977 Z" id="Path" fill="#CFDEEC"></path>
                <ellipse id="Oval" fill="#131127" fill-rule="nonzero" transform="translate(122.855107, 129.477366) rotate(-24.990000) translate(-122.855107, -129.477366) " cx="122.855107" cy="129.477366" rx="19.6200774" ry="19.5814503"></ellipse>
                <path d="M139.685827,119.492696 L135.942457,121.666549 C133.3032,123.203463 130.288119,120.37528 131.55148,117.549271 L133.343542,113.540687 C133.708079,112.726831 133.723395,111.793943 133.385778,110.968004 C133.048161,110.142065 132.388411,109.498419 131.566344,109.192981 L131.566344,109.192981 C130.745596,108.887255 129.837374,108.946808 129.061426,109.357232 C128.285479,109.767657 127.712499,110.491561 127.481122,111.353791 L126.338789,115.603673 C125.531936,118.601416 121.455208,118.78402 120.39356,115.871057 L118.89239,111.740737 C118.587635,110.904927 117.956115,110.237181 117.149992,109.898388 C116.343869,109.559596 115.436241,109.580478 114.645798,109.956003 L114.645798,109.956003 C113.854345,110.333854 113.253233,111.033267 112.987871,111.885055 C112.722509,112.736844 112.817066,113.663426 113.248669,114.440662 L115.371965,118.273165 C116.871012,120.977437 114.110727,124.062135 111.350443,122.768692 L107.435085,120.936134 C106.640511,120.562129 105.729285,120.545798 104.922412,120.891101 C104.11554,121.236405 103.48673,121.911799 103.188493,122.753475 L103.188493,122.753475 C102.889877,123.593765 102.948045,124.523613 103.348924,125.318036 C103.749804,126.112459 104.456872,126.699082 105.299049,126.935968 L109.450093,128.105501 C112.375995,128.931565 112.556475,133.105363 109.711258,134.192289 L105.676996,135.729203 C104.860625,136.041215 104.208408,136.687772 103.877494,137.513088 C103.546581,138.338405 103.566978,139.267644 103.93377,140.076909 L103.93377,140.076909 C104.302832,140.887207 104.98598,141.502632 105.817958,141.774312 C106.649936,142.045992 107.554969,141.949184 108.314129,141.507304 L112.0575,139.333451 C114.696757,137.798711 117.711837,140.62472 116.448476,143.450729 L114.656414,147.459313 C114.291204,148.273089 114.275548,149.20626 114.613246,150.032396 C114.950943,150.858532 115.611129,151.502129 116.433613,151.807019 L116.433613,151.807019 C117.254361,152.112745 118.162583,152.053192 118.93853,151.642768 C119.714478,151.232343 120.287458,150.508439 120.518835,149.646209 L121.661168,145.398501 C122.46802,142.400758 126.544749,142.21598 127.606397,145.131117 L129.107567,149.261437 C129.412322,150.097247 130.043842,150.764993 130.849965,151.103786 C131.656087,151.442578 132.563715,151.421696 133.354159,151.04617 L133.354159,151.04617 C134.145612,150.66832 134.746724,149.968907 135.012086,149.117119 C135.277448,148.26533 135.18289,147.338748 134.751288,146.561512 L132.627992,142.729009 C131.128945,140.02691 133.889229,136.940039 136.649514,138.233482 L140.564872,140.068213 C141.359525,140.44153 142.270475,140.457512 143.077155,140.112291 C143.883834,139.767071 144.512693,139.092122 144.811464,138.250872 L144.811464,138.250872 C145.11011,137.410293 145.051984,136.480173 144.651143,135.685412 C144.250302,134.890651 143.543235,134.3036 142.700908,134.066206 L138.549864,132.896673 C135.623962,132.072783 135.443482,127.896811 138.288699,126.809885 L142.322961,125.272971 C143.139332,124.960959 143.791549,124.314402 144.122462,123.489085 C144.453376,122.663769 144.432979,121.734529 144.066187,120.925265 L144.066187,120.925265 C143.697029,120.11506 143.014042,119.499596 142.182221,119.227554 C141.350399,118.955512 140.445392,119.051633 139.685827,119.492696 L139.685827,119.492696 Z" id="Path" fill="#CFDEEC"></path>
                <path d="M148,98.7391832 C148,98.7391832 127.463189,101.091161 116.803886,109.24039 C115.58701,110.143403 114.477549,111.188655 113.498073,112.354882 C104.637737,123.038663 92.2719374,122.664924 82.4427656,123 C82.4427656,123 79.9481693,109.805295 86.8014789,98.6597099 C95.3024411,84.8206269 108.702227,80.4968532 125.430944,82.4407256 C126.408187,82.5588615 127.334991,82.7049204 128.234475,82.9003817 C142.81746,85.9890983 148,98.7391832 148,98.7391832 Z" id="Path" fill="#FDC333" fill-rule="nonzero"></path>
                <path d="M103.696979,95.8471802 C101.173135,118.379134 75.2467546,134 75.2467546,134 C46.8827949,137.349576 24.8839059,139.024365 9.25008751,139.024365 C2.71764732,135 4.21680053,103.214667 4.18291308,91.0551024 C6.27448704,90.3629961 5.02361932,88.2896131 6.89848646,87.8508615 C16.6594822,85.5557611 24.0776685,116.191483 27.0019205,116.191483 L57.5968808,116.191483 C62.9214476,116.191483 68.1288738,112.79396 72.7080012,107.907202 C76.1945274,104.215271 79.3104639,99.6701985 81.8513471,95.1165303 C85.4379752,88.7104496 84.6456797,75.4706432 82.4902951,62.0331315 C81.2315675,54.165751 79.5085378,46.2403483 77.9111677,39.5742423 C77.7514307,38.8758269 77.5789148,38.2053481 77.4063988,37.5219756 C74.3032413,25.2556527 80.7055004,21.1124379 85.3229646,19.7156071 C86.6752854,19.2970968 88.0755153,19.0565714 89.4889056,19 L89.5038144,19 L92.1724872,42.9502747 C92.1724872,42.9502747 93.2799971,45.3356318 94.8070828,49.2725455 C98.7472622,59.3727062 105.511592,79.6353478 103.696979,95.8471802 Z" id="Path" fill="#131127"></path>
                <path d="M75.559646,1.17107462 L75.6319116,1.31612475 L78.3509923,7.30886784 C79.4473752,7.30268029 80.4882337,7.94480687 80.9463278,9.01134173 L81.172,9.536 L84.7565308,7.59734439 C85.2709417,7.31929519 85.8706726,7.23980407 86.4382297,7.3693541 C86.956499,6.1616873 87.7030255,5.05022218 88.6505671,4.1022674 C90.5295241,2.22249101 93.0511586,1.13349448 95.6988015,1.0493824 L96.0303757,1.04411765 L97.7345396,1.04411765 L100.25,21.9264708 L96.0303757,21.9264708 C94.0259967,21.9268942 92.0809729,21.3503505 90.4171496,20.2887435 L89.222766,21.9769439 C88.8017191,22.5700901 88.1258665,22.9306945 87.4017785,22.9674721 C89.693693,25.3459829 95.1305321,33.4709817 100.737328,43.0727868 C110.43684,59.7099497 120.613169,80.7872016 115.741162,84.2073556 C114.246144,85.2972139 112.896685,86.5718354 111.725305,88.0005023 C105.18126,95.7132339 99.22211,109.948071 94.2462622,122.208364 C91.9533034,127.881225 88.7363797,131.821883 85.0426392,134.603524 C79.1449457,139.066794 72.0477932,140.573516 65.5779196,141.452261 C55.0625207,142.883121 13.5316332,141.620015 6.15421711,138.327854 C5.95704329,138.239865 5.14232754,134.157252 4.60922886,131.043794 C2.32749331,119.480622 -0.61961177,82.5712033 1.88776651,62.6076043 C4.60064144,41.0078531 23.0161952,64.4643836 23.0161952,64.4643836 L35.1494845,65.2524069 C32.0698655,70.9998663 29.3542,76.9324103 27.0182971,83.015503 C25.5812653,86.7307702 24.1823286,90.8032747 22.9971477,95.0165726 C22.4674274,96.9288061 29.7716629,121.412942 30.7630659,128.109911 C31.1702606,130.108218 31.565915,132.423434 32.0727737,132.324861 L33.1771086,132.110198 C47.7411551,129.280536 63.1405501,126.339031 67.7225354,125.301886 C78.2379343,122.924847 90.6563618,108.904955 94.4793726,97.9785854 C96.9969651,90.794787 92.2605853,71.6183231 87.837845,56.0432412 C85.8373338,48.9690226 83.8961598,42.6428968 82.7348461,38.5062596 C82.5631921,37.9014634 82.4127299,37.3514572 82.277102,36.843597 C80.4633291,30.0442541 80.6665711,25.8852092 81.8806874,23.7377015 L76.2873515,25.909184 C74.8991492,26.4534059 73.3288509,25.8143249 72.7116136,24.453928 L68.0484306,14.2207364 C67.7272607,13.5123359 67.7130394,12.7021934 68.0091472,11.9828983 C68.2134678,11.4865694 68.5529528,11.064085 68.9823042,10.7595099 L66.9135765,5.42898484 C66.4872162,4.33029935 66.9216482,3.08140716 67.8991605,2.52168985 L68.0424653,2.44650913 L72.7195858,0.211826167 C73.7672294,-0.292898349 74.9986375,0.134812074 75.559646,1.17107462 Z" id="Combined-Shape" fill="url(#linearGradient-2)"></path>
                <path d="M36.3227396,68 C20.5342017,68 8.88172809,68 1.36531877,68 C1.36531877,60.3068591 2.88230329,51.8596401 4.05738935,44.4700573 C10.4367095,44.4700573 20.2920418,44.8742864 24.3213342,45.3298033 C33.9110447,46.4281847 39.3621938,53.2025264 42.3276697,59.072435 C42.344579,59.0882675 42.344579,59.1199326 42.3614884,59.1357651 C44.4349964,63.2502425 41.2053121,68 36.3227396,68 Z" id="Path" fill="url(#linearGradient-3)"></path>
                <path d="M76.7433034,10.1646038 C75.9579585,9.40006748 74.9033326,8.98135726 73.8115646,9.00063752 C72.7197967,9.01991778 71.6803757,9.47560818 70.9220939,10.2674044 L65.1563245,15.9683701 C63.5763987,17.6160858 63.6210772,20.242536 65.2561166,21.8347107 C66.8911561,23.4268854 69.4974004,23.3818606 71.0773261,21.7341449 L76.8430955,16.0331792 C77.6021707,15.2416598 78.0181098,14.1786574 77.9993947,13.0780615 C77.9806796,11.9774656 77.5288438,10.9294489 76.7433034,10.1646038 Z" id="Path" fill="#FFCB00"></path>
            </g>
            <g id="wall-clock" transform="translate(182.000000, 0.000000)" fill-rule="nonzero">
                <path d="M177.539184,30.4608155 C157.896362,10.8179931 131.778931,0 104,0 C76.2210694,0 50.1036376,10.8179931 30.4608155,30.4608155 C10.8179931,50.1036376 0,76.2210694 0,104 C0,131.778931 10.8179931,157.896362 30.4608155,177.539184 C50.1036376,197.182007 76.2194826,208 104,208 C131.780517,208 157.896362,197.182007 177.539184,177.539184 C197.182007,157.896362 208,131.778931 208,104 C208,76.2210694 197.182007,50.1036376 177.539184,30.4608155 Z" id="Path" fill="url(#linearGradient-4)"></path>
                <path d="M167.786578,41.2134225 C150.88127,24.3097081 128.406705,15 104.5,15 C80.593295,15 58.1187302,24.3097081 41.2134225,41.2134225 C24.3097081,58.1187302 15,80.593295 15,104.5 C15,128.406705 24.3097081,150.88127 41.2134225,167.786578 C58.1187302,184.690292 80.593295,194 104.5,194 C128.405112,194 150.88127,184.690292 167.784985,167.786578 C184.690292,150.88127 194,128.406705 194,104.5 C194,80.593295 184.690292,58.1187302 167.786578,41.2134225 Z" id="Path" fill="#FFFFFF"></path>
                <g id="Group" transform="translate(15.000000, 15.000000)" fill="#0051FF">
                    <path d="M89.5,155.529855 C87.8075729,155.529855 86.4361506,156.900142 86.4361506,158.591167 L86.4361506,178.575432 C87.4547851,178.608776 88.475009,178.632594 89.5,178.632594 C90.524991,178.632594 91.5452149,178.610364 92.5638494,178.575432 L92.5638494,158.591167 C92.5638494,156.900142 91.1924271,155.529855 89.5,155.529855 Z" id="Path"></path>
                    <path d="M89.5,0.219118549 C88.475009,0.219118549 87.4547851,0.241348191 86.4361506,0.276280369 L86.4361506,20.2605455 C86.4361506,21.9515706 87.8075729,23.3218568 89.5,23.3218568 C91.1924271,23.3218568 92.5638494,21.9515706 92.5638494,20.2605455 L92.5638494,0.276280369 C91.5452149,0.241348191 90.524991,0.219118549 89.5,0.219118549 Z" id="Path"></path>
                    <path d="M0.276509436,92.4871673 L20.2773438,92.4871673 C21.9697709,92.4871673 23.3411932,91.1168811 23.3411932,89.425856 C23.3411932,87.734831 21.9697709,86.3645448 20.2773438,86.3645448 L0.276509436,86.3645448 C0.243137327,87.3823354 0.219300223,88.4017141 0.219300223,89.425856 C0.219300223,90.4499979 0.241548295,91.4693767 0.276509436,92.4871673 Z" id="Path"></path>
                    <path d="M155.658807,89.425856 C155.658807,91.1168811 157.030229,92.4871673 158.722656,92.4871673 L178.723491,92.4871673 C178.756863,91.4693767 178.7807,90.4499979 178.7807,89.425856 C178.7807,88.4017141 178.758452,87.3823354 178.723491,86.3645448 L158.722656,86.3645448 C157.030229,86.3645448 155.658807,87.734831 155.658807,89.425856 Z" id="Path"></path>
                </g>
                <path d="M103.18792,96.9010226 C103.181341,96.9010226 103.173822,96.9010226 103.167243,96.9010226 C103.000885,96.9029406 102.835467,96.9086951 102.671929,96.9202036 C102.670989,96.9211628 102.669109,96.9211628 102.668169,96.9211628 C102.667229,96.9211628 102.66629,96.9211628 102.66629,96.9211628 C102.634334,96.9230808 102.603318,96.9288353 102.572302,96.9326716 C102.559144,96.9336306 102.545046,96.9326716 102.531887,96.9345896 C102.389966,96.9470575 102.248045,96.9614433 102.108944,96.9815835 C102.06007,96.988297 102.012136,96.9978878 101.965143,97.0084375 C101.947285,97.0113145 101.929427,97.0122735 101.91157,97.0151508 L101.875855,97.0209053 C101.854237,97.0247415 101.83262,97.0295368 101.811003,97.033373 L101.811003,93.0455927 C101.811003,92.7204709 101.726414,92.400144 101.566636,92.1181799 L90.4629487,72.5820851 C89.7834188,71.3861346 88.6875243,70.5316105 87.3782781,70.1757984 C86.0690316,69.8209453 84.702453,70.0070035 83.5294887,70.7004054 C82.3574641,71.3947664 81.5209752,72.5120736 81.1722814,73.849006 C80.8245274,75.1849797 81.0068633,76.5794559 81.6863932,77.7754063 L96.0664851,103.078341 C96.3907423,103.648983 96.9885029,104 97.6341973,104 L97.6558143,104 C98.3099675,103.991369 98.908668,103.624048 99.2225865,103.03902 C99.6314323,102.278483 100.241411,101.646462 100.986732,101.212966 C101.025267,101.189948 101.061922,101.165971 101.097638,101.141036 C101.126774,101.127609 101.15591,101.117059 101.185046,101.101714 L101.252717,101.069106 C101.284673,101.052802 101.311929,101.033621 101.342945,101.015399 C101.374901,101.00389 101.407796,100.99334 101.439752,100.978954 L101.543139,100.936756 C101.578854,100.92237 101.61081,100.902229 101.645585,100.884966 C101.670022,100.878253 101.694459,100.874417 101.718895,100.866744 L101.845778,100.825504 C101.876794,100.814955 101.904991,100.79961 101.935067,100.788101 C101.961383,100.781388 101.9877,100.77851 102.014016,100.770838 C102.040333,100.763165 102.067589,100.757411 102.094845,100.750698 L102.167216,100.732475 C102.191653,100.726721 102.21421,100.715212 102.238646,100.70754 C102.262143,100.703704 102.28564,100.701785 102.309137,100.696031 C102.35989,100.685481 102.412523,100.677809 102.464216,100.669177 L102.502751,100.662464 C102.531887,100.657669 102.559144,100.649996 102.58828,100.644242 C102.596739,100.643283 102.605198,100.643283 102.613657,100.642324 C102.692606,100.630815 102.771556,100.624101 102.851445,100.616429 C102.870242,100.61547 102.8881,100.611634 102.906898,100.608756 L102.926635,100.608756 L102.928515,100.608756 C103.020622,100.602043 103.11461,100.599166 103.207658,100.598207 C104.201106,100.587657 104.99906,99.7619046 105,98.7500943 C105,98.7433808 105,98.7366673 105,98.7289948 C104.987782,97.7162252 104.179489,96.9010226 103.18792,96.9010226 L103.18792,96.9010226 Z" id="Path" fill="url(#linearGradient-5)"></path>
                <path d="M99,82.2186738 L99,104.13647 C99,104.805481 99.4124514,105.42422 100.081712,105.755825 C100.749861,106.086464 101.57254,106.08163 102.234019,105.73939 C103.070039,105.31014 104.026126,105.082947 105,105.082947 C105.973874,105.082947 106.929961,105.31014 107.765981,105.73939 C108.101723,105.91341 108.479711,105.999454 108.857699,105.999454 C109.223458,105.999454 109.590328,105.918244 109.918288,105.755825 C110.587549,105.42422 111,104.805481 111,104.13647 L111,82.2186738 C111,79.3415391 108.308505,77 105,77 C101.691495,77 99,79.3405722 99,82.2186738 Z" id="Path" fill="url(#linearGradient-6)"></path>
                <path d="M112,104 C112,108.418626 108.418626,112 104,112 C99.5813743,112 96,108.418626 96,104 C96,99.5813743 99.5813743,96 104,96 C108.418626,96 112,99.5813743 112,104 Z" id="Path" fill="#1B2137"></path>
            </g>
            <g id="Group" transform="translate(116.500000, 308.500000) scale(-1, 1) translate(-116.500000, -308.500000) translate(0.000000, 66.000000)">
                <path d="M156,89.9628334 C152.941303,92.250301 149.261873,95.9635354 144.131874,97.1636758 C139.073641,98.3638162 134.841949,97.994173 131.773353,97.7397432 C131.746132,96.7796309 131.711486,95.8675242 131.664467,95.0058234 C131.367506,89.7420076 131.468997,84.1716398 129.131233,81.3774428 C126.793469,78.5832458 114.923505,85.8461297 108.501517,79.874231 C104.220191,75.8929653 103.616235,69.2538626 106.689648,59.956923 C106.843078,59.2536408 106.98166,58.6007644 107.097969,57.9982939 C107.679518,55.0891536 106.179865,54.7123095 104.833643,54.4530792 C104.068968,54.3090623 103.348838,54.1986494 103.101371,53.6849893 C102.522297,52.4848489 104.394675,50.0218446 109.478606,42.8285192 C110.854091,40.882326 111.598102,38.9731644 112.035354,37.0006374 C112.035354,37.0006374 133.070082,36.7270054 140.147649,52.2016158 C140.954991,53.9642907 141.544754,55.8133265 141.904668,57.7102602 C143.602294,66.3752739 148.900161,77.2725488 156,89.9628334 Z" id="Path" fill="#FFFFFF" fill-rule="nonzero"></path>
                <path d="M82.7331492,326.686329 C82.4496557,317.816206 82.0682251,311.0605 82.0163351,302.666394 C81.8192089,271.970875 83.3787519,245.762588 88.1921256,233.549256 C88.5822335,232.541197 89.0407338,231.560115 89.5645235,230.61265 C89.5645235,230.61265 91.7753317,230.307931 95.286175,230.121168 C100.335767,229.858565 105.398926,230.022995 110.419981,230.61265 C118.238549,231.569922 132.46717,286.758597 139,330.96015 C122.185031,331.358159 95.286175,328.691295 82.7331492,326.686329 Z" id="Path" fill="url(#linearGradient-7)" fill-rule="nonzero"></path>
                <path d="M108.656367,328.938135 C100.100863,297.483266 93.1015236,267.195832 90.7888694,247.492699 C90.1999553,242.447296 89.9236746,238.07559 90.0181917,234.511832 C90.0221271,234.513135 90.0263738,234.513135 90.0303093,234.511832 C91.7707109,232.803823 93.6179819,231.209885 95.5607698,229.739813 C101.80132,224.923857 112.944641,217.867127 127.020414,215.462811 C137.751737,213.622349 149.110751,217.564452 157.966273,222.111905 C163.618699,225.012947 168.968965,228.475951 173.937235,232.449245 C184.728795,256.511532 188.238959,291.588684 187.987523,327.979332 C171.222321,330.594613 141.345096,332.745739 108.656367,328.938135 Z" id="Path" fill="url(#linearGradient-8)" fill-rule="nonzero"></path>
                <path d="M179.71041,232.134173 C147.82003,244.719039 88.3444009,233.205398 88.3251352,233.154271 C97.2127841,195.44186 122.722476,136.899687 125.894092,123.093035 C127.098198,117.829417 128.003686,112.933424 128.653903,108.439141 C129.361917,103.569929 129.778538,99.1535537 129.983236,95.2289686 C131.09583,95.2289686 132.391448,95.1778419 133.855641,95.0415039 C137.148007,94.7126634 140.418388,94.1883174 143.64984,93.471183 C149.605349,92.1711034 155.271873,89.3786102 158.958845,87 C167.642859,103.579668 176.577326,122.720541 179.462364,143.648415 C185.208359,185.314264 211.60079,219.549308 179.71041,232.134173 Z" id="Combined-Shape" fill="url(#linearGradient-9)" fill-rule="nonzero"></path>
                <path d="M144.932436,22.2198313 C143.882345,24.0882431 145.941203,20.8197485 149.259198,23.2766364 C151.27053,24.7657516 153.390631,27.1120408 153.88889,30.2890201 L153.93599,30.6325882 C153.958564,30.8231231 153.975376,31.0163002 153.986091,31.2121385 C153.987969,31.2579908 153.990182,31.3035414 153.992064,31.3492428 C153.994639,31.4009417 153.996284,31.4530767 153.997494,31.5053971 C154.041214,33.3052767 153.572252,35.3359756 152.327843,37.6038186 C149.132443,43.4207542 143.715289,47.2590975 142.113077,53.4775336 L142.020557,53.8598618 C141.750341,55.0465966 141.618716,56.3203331 141.665487,57.709847 C141.662928,57.7106838 141.662973,57.71203 141.663018,57.7133763 C141.663018,57.7133763 135.362291,55.9996327 132.210713,60 C132.210346,59.9993195 132.210078,59.9996597 132.209811,60 L131.121,57.834 L128.590164,52.8022766 L128.592,52.8 L128.58797,52.7911672 L127.542741,50.7143368 C121.828012,47.2815593 120.085154,44.1528277 119.387524,42.6767334 C119.321893,42.5443263 119.270847,42.431535 119.222232,42.3211957 C118.631556,41.0486161 118.631556,44.268071 111.317384,40.1144102 C104.003211,35.9607494 102.323552,29.9386768 105.602655,23.8332368 C108.03342,19.3019704 112.603258,19.3019704 115.826453,20.3023799 C116.787266,20.5837841 117.703222,21.0024111 118.546479,21.5455357 C119.500743,22.2095697 120.332453,23.0369231 121.003983,23.9901637 C121.368598,24.4584927 121.490136,24.5394081 121.560628,23.8258808 C121.589797,23.5684225 121.477982,22.884319 121.358875,21.9329492 C120.777922,17.3183154 119.900416,6.28438763 132.802917,5.08781946 C148.37683,3.64850489 145.982526,20.3514195 144.932436,22.2198313 Z" id="Combined-Shape" fill="url(#linearGradient-10)" fill-rule="nonzero"></path>
                <g id="Group-5" transform="translate(171.000000, 176.000000) scale(-1, 1) translate(-171.000000, -176.000000) translate(109.000000, 100.000000)" fill-rule="nonzero">
                    <path d="M107.255045,58.5639296 L123.6722,59.3526842 C118.927254,71.8196172 105.26207,90.5570667 90.1637724,107.718654 L90.1637724,107.73018 C78.7380336,120.727341 66.4961707,132.807307 56.6667708,140.569705 C53.1345853,143.369043 49.9043657,145.603573 47.1523949,147.121802 C26.6089167,158.44924 1.5424781,151.391616 0.084880287,111.693713 C-1.37271753,71.9958108 16.1151918,35.8283672 39.2359902,22.6895931 C60.9106167,10.3856804 63.9096804,4.61065986 75.9130952,1.28089672 C77.3460385,0.883396371 86.0562453,-0.612819041 92.7954404,1.28089672 C108.762261,5.76757804 119.113841,23.5741746 121.042151,41.7906045 L116.42012,35.4743333 L76.4871631,17.3609714 C62.6261097,35.9568074 49.7313474,101.696784 49.9272172,103.848981 C49.9402947,103.939063 49.9678613,104.026387 50.0088296,104.107508 C51.0583654,106.424372 63.2888026,111.282046 82.1886067,95.6156347 C101.811497,79.3481891 107.255045,58.5639296 107.255045,58.5639296 Z" id="Path" fill="url(#linearGradient-11)"></path>
                    <path d="M123.114286,60.8725744 C118.378943,73.2198171 104.741416,91.7773755 89.6736748,108.774201 C89.3234516,101.224949 87.5202096,96.9504641 82.5405248,101.936004 C76.1876395,108.296359 52.6721902,115.705357 49.6,105.197724 C50.6474116,107.492345 62.8530961,112.303382 81.7146497,96.7873781 C101.297826,80.67611 106.730357,60.0930233 106.730357,60.0930233 L123.114286,60.8725744 Z" id="Path" fill="#131127"></path>
                    <path d="M25.4156699,136.052467 C13.9807071,135.484427 12.296399,114.257595 13.7106286,98.3070402 C14.012188,94.7187023 14.539734,91.1525705 15.290179,87.6295167 C21.7786119,91.2341344 34.2775205,88.5919383 39.9360757,83.9534884 C40.2749015,85.95948 39.901702,88.7769569 40.147228,95.4311363 C40.2634436,98.5845682 40.5204275,102.607912 41.0589478,107.801418 C43.1049975,127.660086 40.0293755,136.782804 25.4156699,136.052467 Z" id="Path" fill="url(#linearGradient-12)"></path>
                    <path d="M40.7428571,84.4463866 C35.1084934,89.4696293 22.4035508,92.1864392 15.9428571,88.2827925 C15.9999016,87.9681808 16.0313507,87.5211181 16.1014339,87.2188096 C21.6216205,73.245848 37.4607577,77.6838164 39.8270438,82.1481115 C40.1568478,82.770328 40.645689,83.7422548 40.7428571,84.4463866 Z" id="Path" fill="#FF8F00"></path>
                    <ellipse id="Oval" fill="#FF6600" cx="27.9" cy="90.5813953" rx="4.87142857" ry="4.86046512"></ellipse>
                </g>
                <path d="M119,41.770298 L126.014123,54 C126.014123,54 127.922513,49.7016839 130.128759,46.965923 C132.192666,44.4080769 133.850646,41.1875629 132.524789,38.304829 C130.835179,34.6253466 126.876061,34.2385755 123.602277,36.0615566 C121.376536,37.3166956 119.728906,39.3604435 119,41.770298 L119,41.770298 Z" id="Path" fill="#FFFFFF" fill-rule="nonzero"></path>
                <path d="M173.04314,24.219656 C170.817171,24.8980876 167.483955,25.9299878 163.454645,27.1386223 C162.825484,27.3286591 162.16955,27.5319986 161.500229,27.735338 C161.486843,27.7486406 161.473456,27.7619432 161.46007,27.7619432 C157.457533,28.9705777 152.89468,30.3274409 148.113819,31.7261123 C148.100433,31.7394148 148.07366,31.7394148 148.044975,31.7527174 C127.269266,37.7806869 102.462335,44.3236563 102.011022,41.1880479 C101.328315,36.4371262 132.581758,35.5952629 134.289482,24.219656 C135.47896,16.3198234 138.156242,6.92630096 146.870795,2.52884783 C147.94563,1.98623952 149.065256,1.53610759 150.217398,1.1833868 C153.468383,0.179992136 157.388689,-0.241889712 162.116004,0.138184025 C162.743253,0.193294716 163.372414,0.248405408 163.97289,0.328220893 C183.99896,2.77209502 192.440048,18.2734024 173.04314,24.219656 Z" id="Path" fill="url(#linearGradient-13)" fill-rule="nonzero" transform="translate(143.000000, 21.000000) scale(-1, 1) translate(-143.000000, -21.000000) "></path>
                <g id="Group-6" transform="translate(81.000000, 126.500000) scale(-1, 1) translate(-81.000000, -126.500000) translate(0.000000, 72.000000)">
                    <path d="M2.51157441,50.5121951 C-3.50527726,60.5943208 5.7825269,77.7915759 13.887287,84.2475178 C21.9920471,90.7034596 31.9130331,97.3944958 31.9130331,97.3944958 L32.8181852,95.3713827 L2.51157441,50.5121951 Z" id="Path" fill="#0CD6C1" fill-rule="nonzero"></path>
                    <g id="Passport" transform="translate(100.032787, 0.590616)">
                        <path d="M15.2433779,3.98468569 L45.6530954,4.06502066 C46.1490368,4.06633082 46.5504566,4.46860073 46.5507177,4.9645438 L46.5780619,56.9160323 C46.5783235,57.4130885 46.175592,57.8162442 45.6785358,57.8165059 C45.6775853,57.8165064 45.6766349,57.8165054 45.6756845,57.8165028 L15.265967,57.7361679 C14.7700256,57.7348577 14.3686057,57.3325878 14.3683447,56.8366447 L14.3410005,4.88515624 C14.3407389,4.38810004 14.7434704,3.98494429 15.2405266,3.98468267 C15.241477,3.98468217 15.2424275,3.98468318 15.2433779,3.98468569 Z" id="Rectangle-Copy-3" fill="#131127" transform="translate(30.459531, 30.900594) rotate(44.000000) translate(-30.459531, -30.900594) "></path>
                        <path d="M16.5897134,3.82167856 L46.5950405,3.8374722 C47.0917267,3.83773363 47.4943052,4.2403121 47.4945666,4.73699835 L47.5219467,56.7566311 C47.5222084,57.2536873 47.1194768,57.656843 46.6224206,57.6571047 C46.6221048,57.6571048 46.621789,57.6571048 46.6214732,57.6571047 L16.616146,57.641311 C16.1194598,57.6410496 15.7168813,57.2384711 15.7166199,56.7417849 L15.6892398,4.72215213 C15.6889782,4.22509593 16.0917097,3.82194018 16.5887659,3.82167856 C16.5890817,3.82167839 16.5893976,3.82167839 16.5897134,3.82167856 Z" id="Rectangle" fill="url(#linearGradient-14)" transform="translate(31.605593, 30.739392) rotate(44.000000) translate(-31.605593, -30.739392) "></path>
                        <ellipse id="Oval" fill="#D8D8D8" transform="translate(15.956684, 46.013483) rotate(44.000000) translate(-15.956684, -46.013483) " cx="15.9566842" cy="46.0134833" rx="2.57775492" ry="2.56284006"></ellipse>
                        <path d="M21.1256378,9.84476468 L45.2831828,9.85748027 C45.7302004,9.85771557 46.092521,10.2200362 46.0927563,10.6670538 L46.1121376,47.4896485 C46.112373,47.9369991 45.7499146,48.2998392 45.3025641,48.3000747 C45.3022798,48.3000749 45.3019956,48.3000749 45.3017114,48.3000747 L21.1441663,48.2873591 C20.6971487,48.2871238 20.3348281,47.9248032 20.3345928,47.4777856 L20.3152116,10.6551909 C20.3149761,10.2078403 20.6774345,9.84500014 21.1247851,9.84476468 C21.1250693,9.84476454 21.1253535,9.84476454 21.1256378,9.84476468 Z" id="Rectangle-Copy-2" fill="#FFFFFF" transform="translate(33.213675, 29.072420) rotate(44.000000) translate(-33.213675, -29.072420) "></path>
                        <path d="M43.239371,12.4344564 L52.2689694,12.4392092 C52.6229328,12.4393955 52.9098303,12.726293 52.9100166,13.0802564 C52.9102026,13.4337384 52.6237996,13.720443 52.2703176,13.7206291 C52.270093,13.7206292 52.2698685,13.7206292 52.2696439,13.7206291 L43.2400455,13.7158762 C42.8860821,13.7156899 42.5991846,13.4287924 42.5989983,13.0748291 C42.5988122,12.7213471 42.8852152,12.4346424 43.2386972,12.4344564 C43.2389218,12.4344563 43.2391464,12.4344563 43.239371,12.4344564 Z" id="Rectangle-Copy-2" fill="#FFFFFF" transform="translate(47.754507, 13.077543) rotate(44.000000) translate(-47.754507, -13.077543) "></path>
                    </g>
                    <path d="M108.070985,35.4471545 C109.98042,36.2197558 110.935138,37.8799644 110.935138,40.4277804 L110.935138,46.7321543 L110.935138,46.7321543 L122.163934,57.8339918 C118.281391,59.9803557 114.859513,61.0535377 111.898301,61.0535377 C107.456483,61.0535377 69.6930761,109 63.02535,108.013797 C62.9178817,108.034364 62.8107578,108.050712 62.7040182,108.062926 L63.02535,108.013797 C54.4154984,109.37993 46.1974363,104.510497 34.5245902,96.3333432 C41.2114093,91.2342468 49.9794437,80.3156577 53.1352563,72.1673201 C56.1890998,76.2932265 59.0376979,78.8840337 61.1842779,77.686866 C72.8116877,70.6434221 81,68.4820744 102.069492,50.9224926 C102.882315,47.9051059 103.96179,45.5781076 105.307916,43.9414976 C106.654041,42.3048877 107.575064,39.4734399 108.070985,35.4471545 Z" id="Combined-Shape" fill="#FFFFFF" fill-rule="nonzero"></path>
                    <path d="M54,73.3802382 C52.9562682,76.0670968 51.307172,79.0530758 49.3214723,82.0286052 C45.2965816,88.0658732 39.8913556,94.0744048 35.4267929,97.4796748 C29.8076019,93.5427804 23.4056121,89.0167886 15.8189866,84.4085061 C-7.47841145,70.2544956 -0.154023653,48.3102932 7.12470088,41.6016371 C12.669526,36.4969976 21.7930465,35.2103881 30.4599343,41.2189197 C33.1723322,43.0946265 35.8468949,45.696582 38.3440232,49.1123016 C42.2201821,54.4115652 48.3625437,65.7298101 54,73.3802382 Z" id="Path" fill="url(#linearGradient-15)" fill-rule="nonzero"></path>
                </g>
            </g>
        </g>
    </g>
</svg>