<?xml version="1.0" encoding="UTF-8"?>
<svg width="584px" height="450px" viewBox="0 0 584 450" version="1.1" xmlns="http://www.w3.org/2000/svg" xmlns:xlink="http://www.w3.org/1999/xlink">
    <!-- Generator: Sketch 61.2 (89653) - https://sketch.com -->
    <title>scooter_problem1</title>
    <desc>Created with Sketch.</desc>
    <defs>
        <linearGradient x1="0%" y1="50%" x2="100%" y2="50%" id="linearGradient-1">
            <stop stop-color="#0079FF" offset="0%"></stop>
            <stop stop-color="#0050FF" offset="100%"></stop>
        </linearGradient>
        <linearGradient x1="0%" y1="50%" x2="100%" y2="50%" id="linearGradient-2">
            <stop stop-color="#FFC552" offset="0%"></stop>
            <stop stop-color="#FFCB00" offset="100%"></stop>
        </linearGradient>
        <linearGradient x1="0%" y1="50%" x2="50%" y2="50%" id="linearGradient-3">
            <stop stop-color="#27E8B3" offset="0%"></stop>
            <stop stop-color="#04DED4" offset="100%"></stop>
        </linearGradient>
        <linearGradient x1="0%" y1="38.7737931%" x2="135.508123%" y2="38.7737931%" id="linearGradient-4">
            <stop stop-color="#293765" offset="0%"></stop>
            <stop stop-color="#1B2137" offset="100%"></stop>
        </linearGradient>
        <linearGradient x1="10.0677062%" y1="-8.54362566%" x2="29.8282549%" y2="70.3725259%" id="linearGradient-5">
            <stop stop-color="#815AEE" offset="0%"></stop>
            <stop stop-color="#7047E6" offset="100%"></stop>
        </linearGradient>
        <linearGradient x1="0%" y1="38.7737931%" x2="135.508123%" y2="38.7737931%" id="linearGradient-6">
            <stop stop-color="#293765" offset="0%"></stop>
            <stop stop-color="#1B2137" offset="100%"></stop>
        </linearGradient>
        <linearGradient x1="0%" y1="38.7737931%" x2="135.508123%" y2="38.7737931%" id="linearGradient-7">
            <stop stop-color="#293765" offset="0%"></stop>
            <stop stop-color="#1B2137" offset="100%"></stop>
        </linearGradient>
        <linearGradient x1="0%" y1="38.7737931%" x2="135.508123%" y2="38.7737931%" id="linearGradient-8">
            <stop stop-color="#293765" offset="0%"></stop>
            <stop stop-color="#1B2137" offset="100%"></stop>
        </linearGradient>
        <linearGradient x1="0%" y1="50%" x2="100%" y2="50%" id="linearGradient-9">
            <stop stop-color="#FFC552" offset="0%"></stop>
            <stop stop-color="#FFCB00" offset="100%"></stop>
        </linearGradient>
        <linearGradient x1="105.874022%" y1="62.3057013%" x2="30.7733772%" y2="40.0427783%" id="linearGradient-10">
            <stop stop-color="#56EBCD" offset="0%"></stop>
            <stop stop-color="#2EE6C1" offset="100%"></stop>
        </linearGradient>
    </defs>
    <g id="scooter_problem1" stroke="none" stroke-width="1" fill="none" fill-rule="evenodd" transform="translate(0.000000, 0.000000)">
        <g id="Group" transform="translate(95.000000, 62.000000)" fill-rule="nonzero">
            <g id="Group-2" transform="translate(140.000000, 0.000000)">
                <path d="M255,140.060244 C254.997008,148.863345 247.894407,156 239.13296,156 L15.8672373,156 C11.6590656,156 7.62279722,154.322632 4.64691622,151.333113 C1.67103523,148.343595 -0.000178453078,144.288423 -0.000178453078,140.060244 L-0.000178453078,15.9425024 C-0.00365718844,15.2478648 0.0489015228,14.5540691 0.157350626,13.8680202 C0.316231338,12.4233079 0.690733433,11.0108714 1.26826017,9.67821946 C2.06952569,7.80903696 3.21600745,6.10931289 4.6470509,4.66897105 C7.61883212,1.6731245 11.6575119,-0.00745175345 15.8672373,-2.46756812e-05 L239.13296,-2.46756812e-05 C243.341381,-2.46756812e-05 247.377642,1.67871971 250.353445,4.6686708 C253.329248,7.65862188 255,11.7140731 255,15.9425024 L255,140.060244 Z" id="Path" fill="url(#linearGradient-1)"></path>
                <path d="M255,21 L255,46.242777 C251.914497,46.4124816 248.84021,46.7468117 245.790214,47.2443453 C234.822443,49.1280536 192.901664,86.9786477 171.01217,113.472706 C149.122676,139.966765 104.918413,146.396888 84.5214456,150.552446 C80.0113593,151.483443 75.1166289,153.456722 70.2002285,156 L54.4298246,156 C66.212933,150.484589 78.8790973,145.555462 88.3055841,144.488751 C111.711984,141.855902 150.877953,112.731709 174.411665,90.3823512 C197.170671,68.7495627 215.481892,21.274142 255,21 Z" id="Path" fill="#568EFF"></path>
                <path d="M255,121.79062 L255,122.927429 C230.586029,120.539586 212.729417,112.07607 198.262581,105.22802 C189.150019,100.906514 181.26222,97.1751702 174.303832,96.3103251 C156.010966,94.0584643 108.638107,89.1658343 108.161208,89.1196005 L85.6521231,83.7047999 L0,125.25 L0,123.952732 L85.5166405,82.5 L108.364432,88.0072683 C108.77359,88.0290254 156.124772,92.9434124 174.439314,95.1952732 C181.603636,96.0601183 189.537499,99.8376964 198.73948,104.170081 C213.133156,111.007252 230.835317,119.402777 255,121.79062 Z" id="Path" fill="#4583FF"></path>
                <path d="M216.22807,156 L210.73116,156 C191.673578,146.780974 179.993998,134.035425 173.055098,126.449048 C172.241945,125.561976 171.488424,124.71844 170.808087,124.000074 C162.329617,115.020503 150.44675,114.187852 118.682306,111.981055 C115.529985,111.752484 112.177087,111.526634 108.612769,111.276294 C84.4675628,109.542965 79.5425696,103.31985 73.8505027,96.1361936 C69.9961602,91.308994 66.0279764,86.3022029 55.5301787,81.5892887 C29.7044579,70.0029211 9.79577614,45.4206653 0,13.9377454 C0.158937743,12.4937418 0.533574266,11.0819982 1.11130831,9.75 C10.2945096,42.2778155 30.270954,67.7498651 56.4381989,79.4967766 C67.4564142,84.4355406 71.787806,89.8994735 75.6204644,94.7348364 C81.19869,101.790602 85.6195287,107.344331 108.791662,109.006912 C112.315323,109.257252 115.684484,109.507591 118.836805,109.711672 C151.238218,111.967449 163.370452,112.808264 172.439812,122.459942 C173.141834,123.189192 173.889934,124.030006 174.730192,124.908916 C182.08109,132.94155 194.823188,146.873491 216.22807,156 Z" id="Path" fill="#31167C"></path>
                <polygon id="Path" fill="#639EFF" points="171.491228 0 152.814525 21.0878503 148.084464 61.238072 107.180806 89.0448501 77.7748752 156 75.3070175 156 105.370503 87.5420753 145.957561 59.9176992 150.641619 20.0860005 168.433466 0"></polygon>
                <path d="M231.140351,62.1113839 L230.575379,62.9283523 L200.612954,106.5 L198.720704,105.20102 L227.82621,62.8983967 C220.657287,59.0477524 183.163707,38.8414007 178.054632,35.3338831 C172.626578,31.6411859 149.765496,21.2547944 149.538426,21.1404188 L111.842105,0 L116.478117,0 L150.554835,19.111614 C151.414457,19.5010356 173.734896,29.6368902 179.319736,33.4657487 C184.361231,36.9051856 223.190198,57.8413624 229.20485,61.0520482 C229.702241,61.324371 229.972562,61.4632556 229.996891,61.4850414 L231.140351,62.1113839 Z" id="Path" fill="#639EFF"></path>
                <path d="M255,51.7590847 L255,54.097493 C240.312283,53.8207583 232.765854,61.3645467 231.072364,63.3099918 C230.939216,63.4453648 230.818096,63.5926156 230.710438,63.75 L228.903509,62.3663264 C229.150061,62.0296151 229.420915,61.7123251 229.713791,61.4171263 C232.112227,58.7494036 240.088105,51.4574438 255,51.7590847 Z" id="Path" fill="#639EFF"></path>
                <path d="M95.9972318,50.0496875 C93.3795889,46.3579728 89.1266816,44.1911651 84.6162676,44.2512163 C84.6162676,44.2512163 73.9686894,44.2512163 70.8167474,53.8295321 C69.6939082,57.3752764 69.8727907,61.2080083 71.3209502,64.6325719 C71.8517567,65.9380201 72.518766,67.1832484 73.310799,68.3473869 C76.0609965,72.3385776 84.6162676,83.25 84.6162676,83.25 L86.4766953,83.25 C88.8655923,79.9172338 94.8782789,68.8432375 96.6793886,65.293706 C98.9388646,60.8093742 99.2866836,54.5963393 95.9972318,50.0496875 Z M86.3931108,67.7675398 C81.3703431,67.7675398 77.2985853,63.6757061 77.2985853,58.6281736 C77.2985853,53.580641 81.3703431,49.4888074 86.3931108,49.4888074 C91.4158786,49.4888074 95.4876364,53.580641 95.4876364,58.6281736 C95.4876364,61.0520842 94.5294659,63.3767177 92.8239115,65.0906814 C91.1183571,66.804645 88.805129,67.7675398 86.3931108,67.7675398 L86.3931108,67.7675398 Z" id="Shape" fill="#F09500"></path>
                <path d="M98.2321309,50.0577232 C95.6168989,46.3637147 91.3650328,44.1938113 86.8542261,44.251107 C86.8542261,44.251107 76.2069877,44.251107 73.0524501,53.8294497 C71.9304463,57.374602 72.1102862,61.2065238 73.559333,64.6298101 C74.0884087,65.9369289 74.7554869,67.1832376 75.5491183,68.3473451 C78.2965318,72.3385471 86.8542261,83.25 86.8542261,83.25 C86.8542261,83.25 96.7384439,69.5829107 98.914266,65.2909461 C101.176366,60.8201496 101.524174,54.6070973 98.2321309,50.0577232 Z M86.7679482,67.7756251 C81.7456919,67.7741287 77.6754166,63.6816213 77.676409,58.6344274 C77.6774018,53.5872336 81.7492864,49.4963433 86.7715428,49.4968419 C91.7937992,49.4973406 95.8648794,53.5890393 95.8648797,58.6362333 C95.8830086,61.0661608 94.9303199,63.401814 93.2202898,65.1198258 C91.5102596,66.8378376 89.1858642,67.7945643 86.7679482,67.7756251 L86.7679482,67.7756251 Z" id="Shape" fill="url(#linearGradient-2)"></path>
            </g>
            <polygon id="Path" fill="#DEEBFF" points="71.8607211 216 98 189.863408 97.1372296 189 71 215.138648"></polygon>
            <polygon id="Path" fill="#DEEBFF" points="72 174 57 158.86671 57.8603542 158 72 172.26658"></polygon>
            <polygon id="Path" fill="#FFFFFF" points="16.3465018 207 16 206.581433 32.6554449 192 33 192.418567"></polygon>
            <rect id="Rectangle" fill="#C0D2FF" x="137" y="83" width="17" height="12"></rect>
            <path d="M150.556371,313.709849 C146.349834,315.468196 141.974798,317.069761 137.472892,318.514543 C116.856502,325.07957 93.5342101,328.169578 72.1803873,326.595797 C66.5566259,326.203724 60.9652404,325.436631 55.4434464,324.299626 C54.6941199,310.903637 54.82099,295.068586 56.3929898,277.703416 C56.5059835,276.328095 56.64673,274.938881 56.7894589,273.535775 C60.3299274,238.946341 69.589462,198.728606 88.7627052,159.844517 C96.8328326,143.485534 106.645442,127.366687 118.541495,112 C121.230551,117.739369 125.443053,122.628744 130.719042,126.134256 C135.64517,129.478292 141.550576,131.776448 148.191433,132.923542 C147.93571,143.981682 154.818413,169.41223 158.329147,190.250434 C158.854468,193.397995 159.306443,196.446327 159.647406,199.310091 C159.716788,199.947145 159.788153,200.641752 159.831764,201.38002 C161.516758,225.80438 149.975544,301.447062 150.556371,313.709849 Z" id="Path" fill="url(#linearGradient-3)"></path>
            <path d="M93.6513536,156 C82.9036824,173.850242 97.9128498,207.435639 112.390072,218.865781 C126.867294,230.295923 150,247 150,247 L150,214.294906 L93.6513536,156 Z" id="Path" fill="#0CD6C1"></path>
            <path d="M158,350.183769 C141.747432,354.120255 59.4685596,356.307668 58.2154504,350.183769 C58.1158392,349.692284 58.0162279,349.200799 57.9166167,348.695553 C57.8030599,348.119533 57.7034487,347.529751 57.5898919,346.953731 C57.4325061,346.069058 57.2771126,345.156863 57.1336725,344.217144 C56.6933908,341.394056 56.2810004,338.34685 55.9383377,335.08929 C55.7530609,333.374991 55.5837218,331.619407 55.4402816,329.795016 C55.2689503,327.758303 55.1275024,325.650817 55,323.488284 C60.5492443,324.615397 66.1685046,325.375938 71.8203516,325.764841 C93.278602,327.321865 116.717123,324.260898 137.436258,317.759538 L137.450204,317.745777 C138.205257,317.507898 138.958318,317.268053 139.699426,317.014447 C140.069979,316.888627 140.438541,316.776569 140.809095,316.650749 C141.121874,316.552452 141.434653,316.440393 141.747432,316.326369 C142.231543,316.159264 142.701708,316.003955 143.185818,315.821122 C143.669929,315.63829 144.195876,315.471185 144.707878,315.274591 C145.36332,315.048508 146.01677,314.796868 146.658266,314.543262 C147.981103,314.051777 149.289994,313.532769 150.58494,313 L150.58494,313.180866 C155.785749,325.764841 158,339.297717 158,350.183769 Z" id="Path" fill="url(#linearGradient-4)"></path>
            <path d="M192.570372,87.0773707 C192.188732,87.6895909 191.746857,88.2617715 191.251395,88.7853023 C190.056256,90.0825406 188.611475,91.2257688 187.473341,92.1972166 C186.335207,93.1686645 185.493892,93.9900513 185.550897,94.6100403 C185.592177,95.0049378 185.592177,96.8234408 185.114514,99.2066471 C185.086995,99.3349888 185.059475,99.4751774 185.02999,99.6173405 C183.880062,104.948457 180.339856,112.789146 169.823421,114.510899 C168.045648,114.789864 166.245483,114.898291 164.447262,114.834715 C163.169956,114.801467 161.895179,114.702614 160.627928,114.538542 C159.53304,114.396379 158.086293,114.749812 156.541261,115.610689 C153.535723,117.275182 150.180292,120.829259 148.495697,126.20184 C147.819825,128.362897 147.451222,130.609013 147.400808,132.873633 L147.400808,133 C142.557351,132.154919 138.091306,130.701697 134.132408,128.642306 C132.731434,127.929321 131.376378,127.128739 130.075227,126.245278 C124.843569,122.757612 120.666462,117.893129 118,112.182979 C125.028786,103.063758 132.640949,94.4136775 140.788231,86.2875757 C140.788231,86.2875757 144.831653,78.9266864 149.240693,72.7485152 C152.244265,68.5468058 155.405093,64.894004 157.581111,64.4694892 C162.972995,63.4131384 180.284817,64.4694892 180.284817,64.4694892 C183.850576,66.0786965 185.480132,68.292097 186.252648,70.5489361 C187.320017,73.6508559 186.75783,76.8534746 187.361297,78.685799 C188.414906,81.8607748 194.675625,83.6378135 192.570372,87.0773707 Z" id="Path" fill="#FFFFFF"></path>
            <path d="M185,104 C185.115702,103.854227 185.471074,103.498542 186,103 C185.820949,103.240361 185.60296,103.476902 185.347107,103.708455 C185.173554,103.854227 185.057851,103.93586 185,104 Z" id="Path" fill="#FE93BC"></path>
            <path d="M183.281624,79.019885 C177.77255,83.992955 173.928918,77.5975869 173.928918,77.5975869 C174.836986,84.9159568 169.971778,82.0176516 166.1986,82.6283446 C165.627758,82.7045153 165.076824,82.892306 164.576212,83.18135 C163.695543,83.7084954 163.081032,84.7448832 162.493919,86.0657306 C160.591674,90.3724093 159.069095,97.68879 150.107797,100.418011 C138.392941,103.970772 136.003392,90.5852567 139.441915,78.5365025 C139.441915,78.5365025 157.182506,70.9913606 170.783951,66.7702187 C176.864482,64.8804521 182.121098,63.6590661 184.5948,64.0847609 C185.209311,64.1842223 185.657474,64.3831451 185.894276,64.7113677 C189.221248,69.2428292 188.788742,74.0448257 183.281624,79.019885 Z" id="Path" fill="url(#linearGradient-5)"></path>
            <path d="M165.09817,93 C163.274166,90.3763213 153.168302,88.4146169 155.291651,83.3549535 L155.30562,83.340826 C155.34982,83.2055163 155.407316,83.075026 155.477244,82.9513106 C158.171343,77.8916471 164.784856,77.4880043 169.85974,82.9230556 C170.163124,83.232759 170.448955,83.5595583 170.715865,83.9018896 C170.715865,83.9018896 172.911056,92.1281314 165.09817,93 Z" id="Path" fill="#FFFFFF"></path>
            <path d="M183.642279,67.3729729 C181.334872,68.0837108 177.879709,69.1647491 173.702986,70.4309376 C173.050806,70.6300238 172.370875,70.8430461 171.677067,71.0560684 C171.663191,71.0700044 171.649315,71.0839405 171.635438,71.0839405 C167.486467,72.350129 162.75668,73.7716048 157.80091,75.2368795 C157.787034,75.2508155 157.759281,75.2508155 157.729547,75.2647516 C136.193751,81.5797672 110.47925,88.4343066 110.011425,85.1493835 C109.303741,80.1722275 141.700603,79.2902754 143.470804,67.3729729 C144.7038,59.0969578 147.479031,49.2561248 156.51241,44.6492692 C157.626568,44.0808224 158.787155,43.6092556 159.981449,43.2397386 C163.351373,42.1885632 167.415104,41.7465917 172.31537,42.1447642 C172.965567,42.2024992 173.617747,42.2602342 174.240191,42.3438505 C194.998922,44.9040995 203.74883,61.1435644 183.642279,67.3729729 Z" id="Path" fill="url(#linearGradient-6)"></path>
            <path d="M158,75.3558064 C136.342175,81.617259 110.481966,88.4136591 110.01149,85.1565983 C109.299796,80.2216578 141.88023,79.3471863 143.660462,67.5309646 C144.900445,59.3251455 147.691401,49.567781 156.775966,45 C156.972334,45.2864361 157.076578,45.6250023 157.074997,45.9711963 C150.482358,51.146962 147.135204,61.8913146 147.492047,67.7145444 C147.848891,73.5377743 137.067823,76.879716 142.322797,77.2330578 C145.654003,77.4521691 153.030103,76.2677834 158,75.3558064 Z" id="Path" fill="url(#linearGradient-7)"></path>
            <path d="M129.445744,204.181646 L149.259551,205.134019 C143.532892,220.18708 127.040429,242.811407 108.818346,263.532976 L108.818346,263.546894 C95.0286612,279.240172 80.2539991,293.825994 68.3909303,303.198617 C64.1279478,306.578646 60.2294069,309.276705 56.9080629,311.109874 C32.1142098,324.787064 1.8616115,316.265413 0.102441726,268.332618 C-1.65672805,220.399823 19.4493694,176.729841 47.3537813,160.865573 C73.5128132,146.009349 69.1789123,133.228861 95.168528,127.590176 C96.9139081,127.206444 98.7853653,126.866453 100.824269,126.552309 C106.074199,125.74309 110.985296,125.842502 115.543772,126.723298 C139.169442,131.210785 153.437826,156.292592 155,182.879507 L148.934509,180.123788 L140.507041,176.302367 L92.3120934,154.431587 C75.5832359,176.884925 60.0205917,256.261936 60.2569863,258.860582 C60.2727694,258.969351 60.3060395,259.074789 60.355484,259.172738 C61.6221651,261.970209 76.3830376,267.835555 99.193146,248.919319 C122.875945,229.277371 129.445744,204.181646 129.445744,204.181646 Z" id="Path" fill="url(#linearGradient-8)"></path>
            <path d="M149,205.944027 C143.267162,220.89639 126.756902,243.36937 108.515156,263.952322 C108.091159,254.810268 105.908066,249.633918 99.879415,255.671347 C92.1883005,263.373661 63.7193441,272.345868 60,259.621251 C61.2680479,262.400009 76.0448482,268.226118 98.8795701,249.436423 C122.587924,229.925871 129.164813,205 129.164813,205 L149,205.944027 Z" id="Path" fill="#131127"></path>
            <path d="M30.5510556,296.950996 C16.8337112,296.264636 14.8132206,270.616336 16.5097258,251.343342 C16.8714755,247.007567 17.504318,242.698623 18.4045494,238.441731 C26.1880526,242.797177 41.181703,239.604621 47.9696876,234 C48.3761419,236.423832 47.928453,239.828179 48.2229852,247.868398 C48.3623971,251.678678 48.6706741,256.540069 49.3166813,262.815362 C51.771116,286.810515 48.0816098,297.833459 30.5510556,296.950996 Z" id="Path" fill="url(#linearGradient-9)"></path>
            <path d="M49,234.097593 C42.1842374,240.187802 26.8153552,243.481679 19,238.748874 C19.0690054,238.367437 19.1070487,237.825416 19.1918267,237.458895 C25.8694718,220.517992 45.0297184,225.898612 47.8921613,231.31115 C48.2911177,232.065529 48.8824578,233.243899 49,234.097593 Z" id="Path" fill="#FF8F00"></path>
            <circle id="Oval" fill="#FF6600" cx="33" cy="242" r="6"></circle>
            <path d="M267.237667,96.9277433 C264.997283,100.943289 250.921957,108.040256 261.43926,111.927162 C264.572622,113.0869 265.324708,114.796822 264.288853,117.100467 C264.302744,117.100467 264.302744,117.100467 264.288853,117.11432 C262.546553,120.959665 255.827386,126.459518 247.052384,133.768246 C243.49436,136.723007 239.610896,139.988482 235.570665,143.55082 C222.360536,155.199662 201.794249,247.638351 182.416615,250.692066 C169.347378,252.756242 156.718678,244.216529 139,231.861156 C149.150189,224.156613 162.459538,207.659034 167.249871,195.347201 C171.885422,201.581291 176.209422,205.495904 179.467802,203.687028 C189.20722,198.272276 217.272543,148.682564 222.727649,137.669005 C229.81393,123.34841 244.867563,106.654903 255.952403,98.3408037 C267.037243,90.0267047 269.491941,92.9280303 267.237667,96.9277433 Z" id="Path" fill="#FFFFFF"></path>
            <path d="M167,195.60699 C165.415074,199.664465 162.910891,204.173648 159.895569,208.66705 C153.783698,217.784042 145.575762,226.857638 138.796241,232 C130.263395,226.054822 120.541855,219.220037 109.021424,212.260983 C73.6438937,190.886747 84.7661122,157.748396 95.8189902,147.617529 C104.23891,139.908917 118.093145,137.965984 131.253974,147.03958 C135.372801,149.87212 139.434174,153.801382 143.226109,158.959524 C149.112128,166.962041 158.439418,184.053935 167,195.60699 Z" id="Path" fill="url(#linearGradient-10)"></path>
        </g>
    </g>
</svg>