<?xml version="1.0" encoding="UTF-8"?>
<svg width="584px" height="450px" viewBox="0 0 584 450" version="1.1" xmlns="http://www.w3.org/2000/svg" xmlns:xlink="http://www.w3.org/1999/xlink">
    <!-- Generator: Sketch 61.2 (89653) - https://sketch.com -->
    <title>scooter_problem2</title>
    <desc>Created with Sketch.</desc>
    <defs>
        <linearGradient x1="-74.9705258%" y1="24.4616898%" x2="100%" y2="24.4616898%" id="linearGradient-1">
            <stop stop-color="#0079FF" offset="0%"></stop>
            <stop stop-color="#0050FF" offset="100%"></stop>
        </linearGradient>
        <linearGradient x1="113.214958%" y1="29.8996754%" x2="34.1065699%" y2="50%" id="linearGradient-2">
            <stop stop-color="#0079FF" offset="0%"></stop>
            <stop stop-color="#0050FF" offset="100%"></stop>
        </linearGradient>
        <linearGradient x1="64.8431529%" y1="82.167616%" x2="45.4285666%" y2="-8.42867152%" id="linearGradient-3">
            <stop stop-color="#171F30" offset="0%"></stop>
            <stop stop-color="#182133" offset="0%"></stop>
            <stop stop-color="#21304B" offset="42%"></stop>
            <stop stop-color="#243554" offset="100%"></stop>
        </linearGradient>
        <linearGradient x1="21.6985161%" y1="135.3531%" x2="75.6955485%" y2="0%" id="linearGradient-4">
            <stop stop-color="#FFDA52" offset="0%"></stop>
            <stop stop-color="#F7A71C" offset="100%"></stop>
        </linearGradient>
        <linearGradient x1="27.3481797%" y1="133.663112%" x2="46.3730627%" y2="50%" id="linearGradient-5">
            <stop stop-color="#293765" offset="0%"></stop>
            <stop stop-color="#1B2137" offset="100%"></stop>
        </linearGradient>
        <linearGradient x1="188.680431%" y1="50%" x2="45.0958096%" y2="40.5763943%" id="linearGradient-6">
            <stop stop-color="#293765" offset="0%"></stop>
            <stop stop-color="#1B2137" offset="100%"></stop>
        </linearGradient>
        <linearGradient x1="50%" y1="-483.616106%" x2="50%" y2="194.425885%" id="linearGradient-7">
            <stop stop-color="#2FEBAC" offset="0%"></stop>
            <stop stop-color="#04DED4" offset="100%"></stop>
        </linearGradient>
        <linearGradient x1="0%" y1="50%" x2="100%" y2="50%" id="linearGradient-8">
            <stop stop-color="#815AEE" offset="0%"></stop>
            <stop stop-color="#7047E6" offset="100%"></stop>
        </linearGradient>
        <linearGradient x1="0%" y1="38.7737931%" x2="135.508123%" y2="38.7737931%" id="linearGradient-9">
            <stop stop-color="#293765" offset="0%"></stop>
            <stop stop-color="#1B2137" offset="100%"></stop>
        </linearGradient>
        <linearGradient x1="0%" y1="50%" x2="100%" y2="50%" id="linearGradient-10">
            <stop stop-color="#FFC552" offset="0%"></stop>
            <stop stop-color="#FFCB00" offset="100%"></stop>
        </linearGradient>
        <linearGradient x1="0%" y1="38.7737931%" x2="135.508123%" y2="38.7737931%" id="linearGradient-11">
            <stop stop-color="#293765" offset="0%"></stop>
            <stop stop-color="#1B2137" offset="100%"></stop>
        </linearGradient>
        <linearGradient x1="105.51274%" y1="62.3057013%" x2="30.8976968%" y2="40.0427783%" id="linearGradient-12">
            <stop stop-color="#56EBCD" offset="0%"></stop>
            <stop stop-color="#2EE6C1" offset="100%"></stop>
        </linearGradient>
    </defs>
    <g id="scooter_problem2" stroke="none" stroke-width="1" fill="none" fill-rule="evenodd">
        <g id="Group-4" transform="translate(97.000000, 70.000000)" fill-rule="nonzero">
            <g id="Group-2" transform="translate(0.000000, 27.000000)">
                <path d="M19.8807342,312.121388 C24.0211157,288.981978 27.3335317,272.60795 30.5136714,261.567324 C31.4124995,258.453694 32.2086759,256.022334 32.8621415,254.392331 C35.9216136,252.689778 39.231684,251.47337 42.6716362,250.787467 C42.8218582,250.762658 42.9770875,250.730405 43.1323169,250.705595 C43.5554421,250.633647 44.0486709,251.102552 44.5869663,252.047805 C46.9830068,256.218332 50.4105714,269.608179 53.7104474,285.789128 C54.7119272,290.713872 55.713407,295.904081 56.6723239,301.171201 C57.7305929,307.03499 58.7354331,312.994817 59.6422027,318.79925 C42.6716362,317.450205 29.9294368,316.642148 19.8807342,312.121388 Z" id="Path" fill="url(#linearGradient-1)"></path>
                <path d="M39.5699404,307.59278 C39.4712755,307.592107 39.3739676,307.577056 39.2845675,307.548638 C38.9484656,307.440994 38.8034902,307.168662 38.9602802,306.939473 C39.375368,306.334722 39.7936986,305.77632 40.1990578,305.279718 C40.3023562,305.12111 40.5282032,305.015683 40.7828081,305.007221 C41.037413,304.998758 41.2772788,305.088705 41.4027929,305.239709 C41.5283071,305.390712 41.5180266,305.576974 41.3762208,305.721142 C40.9838331,306.200088 40.5817169,306.738625 40.1796006,307.323512 C40.0708773,307.486479 39.8329073,307.591584 39.5699404,307.59278 L39.5699404,307.59278 Z" id="Path" fill="#1F901E"></path>
                <path d="M42.0352346,316.985443 C36.856405,297.231082 33.2715414,278.997504 33.7543159,258.037725 C33.7543159,258.037725 73.9720226,238.443282 95.9229273,240.506117 C117.873832,242.568951 121.129032,245.476802 121.129032,245.476802 C121.129032,245.533965 121.129032,245.586158 121.129032,245.640835 C121.277784,249.040784 121.525705,257.570481 121.843043,269.435508 C122.090964,278.584055 122.378552,289.713421 122.69837,301.9935 C122.853643,307.942516 122.53076,310.590808 122.69837,316.985443 C106.990881,320.466037 71.9485153,320.639377 42.0352346,316.985443 Z" id="Path" fill="url(#linearGradient-2)"></path>
                <path d="M81.7389466,247.250253 C81.537192,247.248998 81.3719271,247.00486 81.3641689,246.69661 C81.3352006,245.866146 81.2971796,245.09935 81.2537271,244.434979 C81.2398201,244.231247 81.2980567,244.031648 81.4064996,243.911367 C81.5149426,243.791087 81.6571169,243.7684 81.7794669,243.851851 C81.9018169,243.935302 81.9857546,244.112214 81.9996616,244.315946 C82.0467351,244.999695 82.084756,245.780331 82.1155349,246.632941 C82.1209433,246.787081 82.0856461,246.938087 82.0175649,247.052069 C81.9494836,247.166052 81.8543201,247.233465 81.7534308,247.23918 L81.7389466,247.250253 Z" id="Path" fill="#1F901E"></path>
                <path d="M124.522511,114.585403 C124.076154,115.8952 123.574938,117.308989 123.026343,118.762393 C119.68989,127.770036 115.001899,138.711424 115.296145,141.177507 C115.642757,144.039749 68.8027427,115.115264 81.7470844,87.3223054 C94.6914261,59.5293467 113.755093,52.584202 113.755093,52.584202 C109.880019,63.1418123 108.239222,70.9065088 108.830208,77.7996578 C109.264097,82.865528 110.904894,87.4560087 113.755093,92.313896 C120.480365,103.797526 127.70436,105.164271 124.522511,114.585403 Z" id="Path" fill="#222944"></path>
                <path d="M121.94597,8.33458291 L121.908591,8.3387212 C123.081669,8.22589716 123.98463,8.45645062 124.645773,8.9347264 C127.362375,10.8944308 126.076105,17.0212662 123.542154,20.8082293 C122.80898,21.8898684 122.201861,22.821893 121.641047,23.6116612 C119.768238,26.2483098 118.427945,27.3274962 114.834107,27.4231513 C112.520286,27.4863544 110.698597,25.4432505 109.895929,23.0856231 C107.911158,23.4828907 105.974481,23.4559872 104.349201,22.9746341 C103.918061,22.8452871 103.480486,22.7379892 103.038212,22.6531659 C97.1350417,21.5120763 92.9542493,24.9500687 90.5949639,29.9757706 C90.4533501,30.2718229 90.2981693,30.478143 90.1316457,30.6027045 C90.6027497,30.8264646 91.0259453,30.6337309 91.3697124,29.9111517 C91.3697124,29.9111517 96.9105482,33.1295747 100.12925,44.6787616 C103.347951,56.2279485 45.5181165,253.487566 35.2113175,254.267414 C24.9045185,255.049739 26.9658783,241.673478 21.800061,250.662781 C16.6342436,259.652084 -4.2227438,252.71762 1.96133559,219.840192 C8.14541499,186.962764 38.0326485,158.796612 34.081295,146.125928 C33.3089059,143.650218 32.7053994,140.206506 32.3899865,136.163671 C31.0811472,119.494716 34.7295057,92.6654475 52.2932846,81.9134392 C53.2246218,81.3415502 54.1112549,80.7721369 54.9457331,80.2076751 C73.6171825,67.5815543 68.2154264,56.6636734 65.2574992,41.49995 C65.1457388,40.9255853 65.0463961,40.3586477 64.9644384,39.7991373 C62.654722,24.9597318 69.2014021,15.7525665 80.2905244,11.7939063 C81.4031619,11.3928413 82.4636446,11.0734747 83.4694889,10.8036223 L83.4770307,10.8462523 C84.453487,10.614895 85.3829691,10.4364919 86.265477,10.2999513 C93.2045516,9.17603945 97.5935163,10.2754117 102.602041,5.47792773 C102.765605,5.32087455 102.936604,5.15400554 103.097689,4.98713653 C109.762381,-1.85666743 121.179559,-2.47785349 121.94597,8.33458291 Z" id="Combined-Shape" fill="url(#linearGradient-3)"></path>
                <path d="M122.326162,39.4144959 C121.872597,39.6612777 121.40416,39.9302698 120.945638,40.2338114 C119.599813,41.134565 118.36552,42.3437957 117.971439,44.3032431 C117.93674,44.4883295 117.899563,44.6734158 117.874778,44.8510987 C117.696879,45.9226821 117.613943,47.0077637 117.626928,48.0938114 C117.65667,51.8621693 118.618327,54.1399652 115.044332,57.7651897 C113.910746,58.9095204 112.641513,59.912244 111.26462,60.7512493 C110.905238,60.9758207 110.560726,61.1929887 110.226129,61.4076888 C108.344948,62.6095161 106.815714,63.8508285 105.393056,67.7524486 C105.269131,68.1004109 105.145206,68.4681158 105.016324,68.858031 C104.545733,70.4368477 104.205053,72.0512004 103.997661,73.6850828 C103.534359,77.1861391 103.261327,80.7095574 103.179756,84.2399399 C101.360782,84.5848286 99.4903084,84.5571191 97.6824446,84.1585019 L97.4717722,84.1116133 C95.9351027,83.7537797 94.1951963,83.2824265 92.4428973,82.7493779 C90.0214036,82.0090325 87.5577754,81.1576353 85.5353201,80.3333842 C94.4232182,51.7289071 88.841638,42.4597832 87.8304103,39.2442165 C87.6869319,38.7538367 87.6192375,38.2445721 87.6296519,37.7339119 C87.6296519,34.8416294 89.1811924,30.1601789 91.969504,26.0142448 C94.6016701,22.0805431 98.3367684,18.6255981 102.8749,17.623664 C113.160672,15.3187221 117.659148,16.920336 117.659148,16.920336 C116.940383,21.5450267 116.955254,24.5458932 117.906998,27.0803422 C118.384368,28.2977604 119.05371,29.4315704 119.889797,30.4390423 L119.889797,30.4390423 C120.995491,31.7641472 122.202844,33.0017753 123.500971,34.1407691 C126.908907,37.2428162 124.866624,38.0201788 122.326162,39.4144959 Z" id="Path" fill="#FFFFFF"></path>
                <path d="M202.909137,86.5131698 C202.705118,86.8952935 202.403647,87.2189832 202.034144,87.4526525 C201.900726,87.5413517 201.762592,87.6230196 201.62033,87.6973095 C200.286651,88.4312803 198.150272,88.9475065 195.687328,89.52979 C188.994006,91.1249533 179.865161,93.2779344 177.738753,102.080691 C177.536832,102.907632 177.319953,103.866687 177.083132,104.943178 C176.58456,107.220934 175.996246,110.024703 175.313203,113.19301 C173.715281,120.645261 171.588874,130.106145 168.831773,139.493632 C168.171166,141.751815 167.465687,144.007553 166.727801,146.229038 C166.318972,147.452322 165.905158,148.651141 165.481372,149.840174 C165.482575,149.826335 165.482575,149.812421 165.481372,149.798582 C164.733515,145.707918 163.113158,141.123047 159.874935,136.132045 C157.516207,132.538981 154.253637,129.603263 150.402076,127.608197 C151.100077,126.345767 151.778134,125.009941 152.451205,123.625182 C154.151334,120.126588 155.816563,116.285474 157.586492,112.42968 C161.89415,103.04464 166.825023,93.5617365 174.38586,88.6270059 C174.537924,88.52425 174.687496,88.4337269 174.837067,88.3383107 C192.217271,77.5415996 204.978209,82.2830512 202.909137,86.5131698 Z" id="Path" fill="#FFFFFF"></path>
                <path d="M123.606304,233.457676 C104.042874,233.019266 109.798111,230.697223 97.6749117,220.527134 C99.6673044,221.286988 101.555078,222.319749 103.289125,223.598552 C109.435825,228.031079 116.608597,232.035393 123.606304,233.457676 Z" id="Path" fill="#F99393"></path>
                <path d="M80.9815331,74.4086323 C81.4731718,75.0533748 83.1742419,75.9509574 85.4234892,76.8965797 C86.613255,77.40226 87.9480542,77.9079404 89.3565993,78.3959219 C89.8154621,78.564482 90.2776025,78.7220858 90.7430206,78.8687331 C92.9873515,79.6272536 95.2931373,80.2947517 97.2719832,80.7675628 L97.4809297,80.8156024 C99.2739824,81.2240056 101.129132,81.2523953 102.933204,80.8990397 C105.607718,80.3933593 107.416949,79.3819986 108.621464,80.1177635 C110.516731,81.2934704 108.092952,91.1340101 107.517735,94.0189165 C107.227668,95.4778043 105.624926,96.2489669 103.029073,96.4183698 L102.630911,96.4299975 L102.637962,96.6010025 C102.662191,97.1730145 102.68854,97.7520845 102.717009,98.3382126 C103.765585,99.9534605 104.774418,101.510775 105.744287,103.012084 C107.940843,106.397085 109.958899,109.517671 111.845558,112.368855 C120.909453,126.088461 126.795035,133.694111 133.488831,135.490132 C136.017598,136.168629 138.657929,136.018961 141.63047,135.061083 C142.049192,134.922129 142.458324,134.755468 142.855187,134.562188 C143.423689,135.183226 144.022039,135.849645 144.634824,136.554285 L144.243104,136.087352 C143.554179,135.27665 142.848241,134.480582 142.12574,133.699701 C141.680889,133.207945 141.253054,132.745695 140.854391,132.315409 C139.451774,130.805719 138.372465,129.689434 137.959216,129.118998 C136.578477,127.206069 140.093526,124.909571 142.378551,121.789382 C142.978977,120.960774 146.61557,121.405813 150.726184,123.613795 C154.481983,125.618816 157.663435,128.569183 159.963518,132.180176 C161.2802,134.254127 162.411005,136.442949 163.342438,138.720524 C164.120243,140.612487 164.729568,142.570884 165.163165,144.572415 C165.270124,145.042041 165.355204,145.501832 165.435423,145.956706 C165.958785,149.051479 166.091925,152.200901 165.831656,155.329566 C165.421115,160.835091 158.607524,165.735094 156.716781,166.92346 C156.744888,167.084372 156.772565,167.233868 156.800595,167.372002 C154.817248,170.115923 152.680192,172.360949 150.381988,173.877589 C143.554316,178.410048 136.59029,178.92391 130.072516,176.666411 C122.345546,173.990703 115.253591,167.423036 109.764472,159.049583 C112.675084,179.163691 115.544699,200.170612 117.661178,216.484919 C118.162477,220.285273 118.606126,223.826006 119.007164,227.047776 C119.759112,233.152573 120.343124,238.087841 120.681501,241.366481 C120.897059,243.661034 121.009851,245.149526 120.989799,245.66135 C120.811838,249.427088 91.6462996,243.683287 73.0531433,249.980946 C54.459987,256.278604 33.3979363,266.270296 30.1470164,264.218055 C29.1895365,263.617218 29.0642119,256.481356 30.2046657,245.082767 C31.5479287,231.485863 34.6834419,211.814289 40.328146,189.910014 C36.6383266,188.072636 34.4523508,182.067772 33.7752478,179.294419 C33.6566063,178.863874 33.5820378,178.422388 33.552692,177.976765 C33.5952026,176.769125 35.6082079,176.876637 36.3383912,176.551599 C36.5454402,176.45777 36.7986285,176.352407 37.0947849,176.231811 L37.1450113,176.307317 C36.1875273,174.883312 35.3583459,173.376602 34.6672906,171.805036 C28.3733389,157.296039 50.1118314,133.99229 65.3619928,116.192974 C66.8079919,114.507675 68.5375087,112.894737 70.4489005,111.414445 C73.1332986,105.84583 75.4619193,100.678669 77.4796079,95.8873544 C78.358455,93.8091013 79.1712834,91.80321 79.9325832,89.860151 C79.0788304,89.3159721 78.2558595,88.7217845 77.466316,88.0822291 C77.061379,87.7610173 76.6891117,87.3984487 76.3552124,87.0000732 C75.0794098,85.3363848 77.8448778,79.9205482 78.5233393,76.9901305 C79.2018008,74.0597129 80.2440749,73.4326692 80.9815331,74.4086323 Z" id="Combined-Shape" fill="url(#linearGradient-4)"></path>
                <path d="M131.113327,234.303669 C128.760151,234.303669 126.667326,234.268936 124.802309,234.22676 C104.660122,233.800036 110.58562,231.539887 98.1037723,221.640883 C95.5039024,219.596788 92.7955484,217.692001 89.9903212,215.93469 C87.1114355,214.115324 84.2684315,212.314978 81.4613093,210.533654 C69.6028033,203.018846 58.6054597,195.878661 50.1340255,188.845158 C52.8501916,188.177782 56.0094558,187.302005 59.333943,186.314586 C64.1729744,184.883076 69.3674857,183.208432 74.0738381,181.600774 C78.4747782,180.087392 82.4426338,178.62363 85.2839689,177.425329 C90.8164363,189.78544 103.578662,206.5939 111.546917,213.895346 C122.178767,223.635569 133.669277,227.453757 143.55512,230.197691 L145.74057,230.795601 C154.92046,233.274074 162.801097,234.474855 131.113327,234.303669 Z" id="Path" fill="#FFFFFF"></path>
            </g>
            <g id="Group-3" transform="translate(176.500000, 24.000000) scale(-1, 1) translate(-176.500000, -24.000000) translate(142.000000, 0.000000)">
                <path d="M61.12628,45.0351662 C61.6565059,44.5778583 59.4011788,33.3914031 66.2069894,27.3082028 C73.0128,21.2250024 67.1604003,-8.66584902 32.7255876,2.45778912 C-1.70922523,13.5814273 -6.35679231,32.8235373 6.72709231,44.0552207 C19.8109769,55.2869041 43.7458229,36.3463158 50.8055446,38.6052159 C57.8652662,40.864116 59.9114901,46.0779288 61.12628,45.0351662 Z" id="Path" fill="#1B2137"></path>
                <path d="M17.7961195,25.9105524 C19.3961121,25.9105524 20.6931623,27.2202919 20.6931623,28.8359374 C20.6931623,30.4515829 19.3961121,31.7613223 17.7961195,31.7613223 C16.196127,31.7613223 14.8990768,30.4515829 14.8990768,28.8359374 C14.8990768,27.2202919 16.196127,25.9105524 17.7961195,25.9105524 Z M33.5229229,20.0597825 C35.1229154,20.0597825 36.4199656,21.369522 36.4199656,22.9851675 C36.4199656,24.600813 35.1229154,25.9105524 33.5229229,25.9105524 C31.9229303,25.9105524 30.6258801,24.600813 30.6258801,22.9851675 C30.6258801,21.369522 31.9229303,20.0597825 33.5229229,20.0597825 Z M48.4219997,15.0448369 C50.0219922,15.0448369 51.3190424,16.3545764 51.3190424,17.9702218 C51.3190424,19.5858673 50.0219922,20.8956068 48.4219997,20.8956068 C46.8220072,20.8956068 45.524957,19.5858673 45.524957,17.9702218 C45.524957,16.3545764 46.8220072,15.0448369 48.4219997,15.0448369 Z" id="Combined-Shape" fill="#FFFFFF"></path>
            </g>
            <g id="Group" transform="translate(206.000000, 9.000000)">
                <path d="M113.8807,91.6686571 C110.788885,93.9923368 107.069616,97.7643541 101.884071,98.9834935 C96.7710697,100.202633 92.4935586,99.8271379 89.3917376,99.5686804 C89.3642215,98.5933689 89.3292009,97.6668229 89.281673,96.7914809 C88.9814968,91.4443355 89.0840866,85.7857852 86.7210102,82.9473543 C84.3579338,80.1089234 72.3594473,87.4867833 65.8679245,81.4203457 C61.5402427,77.376054 60.9297472,70.6318501 64.036438,61.187734 C64.191529,60.4733183 64.3316112,59.8101065 64.4491803,59.1980985 C65.0370254,56.2429046 63.5211354,55.8600948 62.1603366,55.5967607 C61.3873828,55.450464 60.6594555,55.3383032 60.4093086,54.8165115 C59.823965,53.5973721 61.7166162,51.0953769 66.855593,43.7881766 C68.2459711,41.8111738 68.998038,39.871789 69.4400247,37.8680357 C69.4400247,37.8680357 90.7025071,37.5900719 97.8567071,53.3096552 C98.6727907,55.1002344 99.2689385,56.9785416 99.6327497,58.905505 C101.348757,67.7076915 106.703987,78.7774772 113.8807,91.6686571 Z" id="Path" fill="#FFFFFF"></path>
                <path d="M38.9079725,332.130643 C38.620261,323.136256 38.2331553,316.285906 38.1804933,307.774204 C37.9804341,276.64866 39.5631808,250.073211 44.4481702,237.688778 C44.8440823,236.666597 45.3094044,235.671771 45.8409873,234.711032 C45.8409873,234.711032 48.084689,234.402044 51.6477684,234.212664 C56.7724907,233.946383 61.9109816,234.113117 67.0067423,234.711032 C74.9416387,235.681714 89.3819601,291.643549 96.011989,336.464337 C78.9468388,336.867922 51.6477684,334.163697 38.9079725,332.130643 Z" id="Path" fill="url(#linearGradient-5)"></path>
                <path d="M65.8645486,335.269627 C57.1209215,303.297845 49.9676774,272.512684 47.6041714,252.48576 C47.002308,247.357443 46.7199523,242.913895 46.8165477,239.291571 C46.8205697,239.292897 46.8249097,239.292897 46.8289317,239.291571 C48.6076022,237.555495 50.4954919,235.935363 52.4809988,234.441132 C58.8587696,229.546033 70.2471152,222.373337 84.6323939,219.929509 C95.5996828,218.058803 107.208464,222.065688 116.258706,226.687871 C122.035421,229.636587 127.503331,233.156501 132.580846,237.19509 C143.609696,261.652803 147.197043,297.306395 146.940079,334.295067 C129.806235,336.953327 99.2720542,339.139804 65.8645486,335.269627 Z" id="Path" fill="url(#linearGradient-6)"></path>
                <path d="M137.555095,236.882046 C134.245355,243.573818 91.7992222,246.981327 63.7793762,243.38264 C53.1141177,242.026178 44.4678126,237.740825 44.4481702,237.688778 C47.8011733,226.910081 61.6422312,183.181813 65.2122326,175.516016 C74.0267478,156.59565 79.4529536,139.933137 82.6865793,125.877937 C83.9142277,120.519563 84.8374192,115.535432 85.5003494,110.960242 C86.2222066,106.003374 86.6469729,101.507494 86.8556731,97.5122584 C87.9900202,97.5122584 89.3109699,97.4602113 90.8037903,97.321419 C94.1605269,96.9866586 97.4948495,96.4528733 100.789482,95.722829 C106.861431,94.3993451 112.638744,91.5565812 116.397803,89.135151 C125.251603,106.013288 134.360754,125.498737 137.302199,146.803357 C143.160537,189.219279 140.86729,230.190274 137.555095,236.882046 Z" id="Combined-Shape" fill="url(#linearGradient-7)"></path>
                <path d="M102.953244,22.6782061 C101.883394,24.5785826 103.980993,21.2541708 107.361422,23.753091 C109.410601,25.2676819 111.570596,27.6541113 112.07823,30.8854422 L112.126216,31.2348881 C112.160709,31.5255337 112.181996,31.8222243 112.188932,32.1250244 C112.192071,32.2671389 112.192367,32.410785 112.189382,32.5558506 C112.187981,32.6061003 112.186469,32.6568327 112.184551,32.7077304 C112.124122,34.3906466 111.622226,36.2614589 110.487809,38.3253819 C107.232281,44.2418334 101.713194,48.1458429 100.080834,54.4706636 L99.9865726,54.8595327 C99.7112726,56.0665701 99.5771703,57.3620975 99.6248217,58.7753832 C99.6221929,58.7756085 99.6222494,58.7772906 99.6223062,58.7789729 C99.6223062,58.7789729 93.2030196,57.0359106 89.9921384,61.1047161 C89.9917583,61.1040322 89.9914887,61.1043741 89.9912192,61.1047161 L89.1245896,59.3827788 L86.3034623,53.7838544 L86.3055896,53.7807788 L86.3012275,53.7725549 L85.2363306,51.6601942 C79.4140686,48.1686889 77.6384149,44.9864312 76.9276581,43.4850839 C76.8607924,43.3504115 76.8087859,43.2356906 76.7592558,43.1234637 C76.1574652,41.8291128 76.1574652,45.103646 68.7056632,40.8789246 C61.2538612,36.6542031 59.5425966,30.5291052 62.8834011,24.3192136 C65.3599056,19.7104266 70.015734,19.7104266 73.299579,20.727951 C74.2784709,21.0141695 75.2116625,21.4399583 76.0707875,21.9923747 C77.0430069,22.667769 77.890368,23.5092767 78.5745335,24.4788253 C78.9460092,24.9551664 79.0698344,25.0374662 79.1416531,24.3117318 C79.1713711,24.0498689 79.0574519,23.3540618 78.9361032,22.3864161 C78.3442186,17.6928353 77.4502005,6.47013969 90.5954863,5.2531007 C106.462451,3.7891624 104.023094,20.7778297 102.953244,22.6782061 Z" id="Combined-Shape" fill="url(#linearGradient-8)"></path>
                <g id="Group-5" transform="translate(129.000000, 179.179417) scale(-1, 1) translate(-129.000000, -179.179417) translate(66.000000, 101.679417)">
                    <path d="M109.099205,59.6306679 L125.798639,60.4337896 C120.972107,73.1278069 107.071963,92.2065579 91.7140624,109.680742 L91.7140624,109.692479 C80.0918677,122.926382 67.6395163,135.226383 57.6411082,143.130174 C54.0481897,145.980501 50.7624292,148.255733 47.9631406,149.801617 C27.0664346,161.335383 1.56899971,154.149205 0.086339732,113.728207 C-1.39632025,73.3072099 16.3922789,36.4809786 39.91062,23.1028826 C61.9579234,10.5748549 65.0085535,4.69464274 77.2183569,1.30422818 C78.6759384,0.89948738 87.5359099,-0.623981501 94.3909797,1.30422818 C110.632337,5.8726341 121.161903,24.0035767 123.123368,42.5518177 L118.421866,36.120496 L77.8022954,17.6772004 C63.7029129,36.6117583 50.586436,103.549185 50.7856736,105.740584 C50.7989759,105.832306 50.8270166,105.921221 50.8686893,106.00382 C51.9362709,108.362885 64.3770002,113.309041 83.6017705,97.3572674 C103.56206,80.7935113 109.099205,59.6306679 109.099205,59.6306679 Z" id="Path" fill="url(#linearGradient-9)"></path>
                    <path d="M125.231132,61.9813645 C120.414369,74.5535114 106.542356,93.4490946 91.215538,110.755516 C90.8592931,103.068755 89.0250458,98.7164106 83.9597396,103.792762 C77.4976218,110.26897 53.5778441,117.812922 50.4528302,107.113894 C51.5182512,109.450311 63.9338021,114.348981 83.1196643,98.550354 C103.039557,82.1456202 108.565496,61.1876138 108.565496,61.1876138 L125.231132,61.9813645 Z" id="Path" fill="#131127"></path>
                    <path d="M25.8526709,138.530654 C14.2210936,137.952268 12.5078252,116.33879 13.9463713,100.097697 C14.2531158,96.4439974 14.7897325,92.8129088 15.5530807,89.2256828 C22.1530768,92.8959584 34.8668936,90.2056348 40.6227428,85.4826958 C40.9673945,87.5252265 40.5877782,90.3940236 40.8375257,97.1694084 C40.9557396,100.38028 41.2171421,104.476909 41.7649218,109.765014 C43.8461516,129.985407 40.7176469,139.274294 25.8526709,138.530654 Z" id="Path" fill="url(#linearGradient-10)"></path>
                    <path d="M41.4433962,85.9845722 C35.7121543,91.0993129 22.788761,93.8656093 16.2169811,89.890858 C16.2750064,89.5705156 16.3069963,89.1153097 16.3782845,88.8074947 C21.993386,74.5800165 38.1048638,79.0988222 40.5118362,83.6444341 C40.8473109,84.2779842 41.3445573,85.2676146 41.4433962,85.9845722 Z" id="Path" fill="#FF8F00"></path>
                    <ellipse id="Oval" fill="#FF6600" cx="28.379717" cy="92.2313297" rx="4.95518868" ry="4.94899818"></ellipse>
                </g>
                <path d="M75.9659984,43.0726793 L83.1880872,55.2355524 C83.1880872,55.2355524 85.1530598,50.9607244 87.4247202,48.239913 C89.5498219,45.6960441 91.2569597,42.4931286 89.8917923,39.6261473 C88.1520858,35.9667714 84.0755817,35.5821139 80.7047308,37.3951333 C78.4129973,38.6434136 76.7165158,40.6759934 75.9659984,43.0726793 L75.9659984,43.0726793 Z" id="Path" fill="#FFFFFF"></path>
                <path d="M131.219852,24.8144735 C128.946372,25.5095669 125.542012,26.5668099 121.426702,27.8051276 C120.784112,27.9998316 120.114178,28.2081649 119.430571,28.4164982 C119.416899,28.4301275 119.403227,28.4437568 119.389555,28.4437568 C115.301589,29.6820745 110.641346,31.0722613 105.758443,32.505283 C105.744771,32.5189123 105.717427,32.5189123 105.688129,32.5325416 C84.4689869,38.7085537 59.1325807,45.4122138 58.6716347,42.1995971 C57.9743561,37.3319962 89.8948685,36.4694573 91.6390414,24.8144735 C92.8539076,16.7206266 95.5883332,7.09640599 104.488888,2.59095453 C105.586664,2.03502015 106.730187,1.5738333 107.90692,1.21244994 C111.227294,0.184412615 115.231275,-0.247830351 120.059489,0.141577726 C120.700126,0.198041897 121.342716,0.254506069 121.956008,0.336281765 C142.409512,2.8401757 151.030765,18.7221841 131.219852,24.8144735 Z" id="Path" fill="url(#linearGradient-11)" transform="translate(100.535476, 21.515745) scale(-1, 1) translate(-100.535476, -21.515745) "></path>
                <g id="Group-6" transform="translate(60.424528, 132.183971) scale(-1, 1) translate(-60.424528, -132.183971) translate(0.924528, 79.183971)">
                    <path d="M2.55611054,45.8907104 C-3.56743408,56.1280079 5.88506472,73.5899422 14.1335413,80.1452461 C22.3820179,86.70055 32.4789263,93.4945665 32.4789263,93.4945665 L33.4001289,91.4403161 L2.55611054,45.8907104 Z" id="Path" fill="#0CD6C1"></path>
                    <path d="M117.551329,8.9089839 C116.17411,11.9572443 113.465992,21.5855089 107.582621,26.4970902 C105.197075,28.4827363 102.59333,30.6771878 99.884478,33.0711348 C91.0274896,40.8993416 77.2384212,103.019607 64.2463088,105.071752 C55.4837842,106.458911 47.0166257,100.720088 35.1367925,92.4170819 C41.9421847,87.2395064 50.865697,76.1528717 54.0774696,67.8791247 C57.1854649,72.0685321 60.0845753,74.6992139 62.2692193,73.4836208 C68.7992027,69.8448213 87.6161454,36.5197485 91.2736279,29.1184622 C96.0247629,19.4947951 106.117765,8.27649332 113.549812,2.68928693 C120.981859,-2.89791947 118.928548,5.86072354 117.551329,8.9089839 Z" id="Path" fill="#FFFFFF"></path>
                    <path d="M54.9575472,69.1107107 C53.8953076,71.8389221 52.216969,74.8708576 50.1960581,77.8921827 C46.0997966,84.0223691 40.5987233,90.1233767 36.0549934,93.5810565 C30.3361609,89.5835702 23.8206487,84.9879199 16.0994945,80.3087123 C-7.6110213,65.9368604 -0.156754855,43.6549195 7.25103861,36.8430118 C12.8941865,31.659808 22.1794885,30.3533965 31.0000606,36.4544042 C33.7605558,38.3589796 36.4825448,41.0009812 39.0239531,44.4692714 C42.9688454,49.8500948 49.2201255,61.3425364 54.9575472,69.1107107 Z" id="Path" fill="url(#linearGradient-12)"></path>
                </g>
            </g>
        </g>
    </g>
</svg>